<svg width="22" height="22" viewBox="0 0 22 22" fill="none" xmlns="http://www.w3.org/2000/svg">
<path fill-rule="evenodd" clip-rule="evenodd" d="M2.75 7.25V2.75H7.25V7.25H2.75ZM0.5 2C0.5 1.60218 0.658035 1.22064 0.93934 0.93934C1.22064 0.658035 1.60218 0.5 2 0.5H8C8.39782 0.5 8.77936 0.658035 9.06066 0.93934C9.34196 1.22064 9.5 1.60218 9.5 2V8C9.5 8.39782 9.34196 8.77936 9.06066 9.06066C8.77936 9.34196 8.39782 9.5 8 9.5H2C1.60218 9.5 1.22064 9.34196 0.93934 9.06066C0.658035 8.77936 0.5 8.39782 0.5 8V2ZM12.5 2.375C12.5 2.07663 12.6185 1.79048 12.8295 1.5795C13.0405 1.36853 13.3266 1.25 13.625 1.25H20.375C20.6734 1.25 20.9595 1.36853 21.1705 1.5795C21.3815 1.79048 21.5 2.07663 21.5 2.375C21.5 2.67337 21.3815 2.95952 21.1705 3.1705C20.9595 3.38147 20.6734 3.5 20.375 3.5H13.625C13.3266 3.5 13.0405 3.38147 12.8295 3.1705C12.6185 2.95952 12.5 2.67337 12.5 2.375ZM13.625 6.5C13.3266 6.5 13.0405 6.61853 12.8295 6.8295C12.6185 7.04048 12.5 7.32663 12.5 7.625C12.5 7.92337 12.6185 8.20952 12.8295 8.4205C13.0405 8.63147 13.3266 8.75 13.625 8.75H20.375C20.6734 8.75 20.9595 8.63147 21.1705 8.4205C21.3815 8.20952 21.5 7.92337 21.5 7.625C21.5 7.32663 21.3815 7.04048 21.1705 6.8295C20.9595 6.61853 20.6734 6.5 20.375 6.5H13.625ZM2.75 14.75V19.25H7.25V14.75H2.75ZM2 12.5C1.60218 12.5 1.22064 12.658 0.93934 12.9393C0.658035 13.2206 0.5 13.6022 0.5 14V20C0.5 20.3978 0.658035 20.7794 0.93934 21.0607C1.22064 21.342 1.60218 21.5 2 21.5H8C8.39782 21.5 8.77936 21.342 9.06066 21.0607C9.34196 20.7794 9.5 20.3978 9.5 20V14C9.5 13.6022 9.34196 13.2206 9.06066 12.9393C8.77936 12.658 8.39782 12.5 8 12.5H2ZM13.625 13.25C13.3266 13.25 13.0405 13.3685 12.8295 13.5795C12.6185 13.7905 12.5 14.0766 12.5 14.375C12.5 14.6734 12.6185 14.9595 12.8295 15.1705C13.0405 15.3815 13.3266 15.5 13.625 15.5H20.375C20.6734 15.5 20.9595 15.3815 21.1705 15.1705C21.3815 14.9595 21.5 14.6734 21.5 14.375C21.5 14.0766 21.3815 13.7905 21.1705 13.5795C20.9595 13.3685 20.6734 13.25 20.375 13.25H13.625ZM13.625 18.5C13.3266 18.5 13.0405 18.6185 12.8295 18.8295C12.6185 19.0405 12.5 19.3266 12.5 19.625C12.5 19.9234 12.6185 20.2095 12.8295 20.4205C13.0405 20.6315 13.3266 20.75 13.625 20.75H20.375C20.6734 20.75 20.9595 20.6315 21.1705 20.4205C21.3815 20.2095 21.5 19.9234 21.5 19.625C21.5 19.3266 21.3815 19.0405 21.1705 18.8295C20.9595 18.6185 20.6734 18.5 20.375 18.5H13.625Z" fill="#3D2314"/>
</svg>
