<svg width="22" height="20" viewBox="0 0 22 20" fill="none" xmlns="http://www.w3.org/2000/svg">
<path d="M10.8752 18C10.9419 18 11.0086 17.9833 11.0752 17.95C11.1419 17.9167 11.1919 17.8833 11.2252 17.85L19.4252 9.65C19.6252 9.45 19.7712 9.225 19.8632 8.975C19.9552 8.725 20.0009 8.475 20.0002 8.225C20.0002 7.95833 19.9546 7.704 19.8632 7.462C19.7719 7.22 19.6259 7.00767 19.4252 6.825L15.1752 2.575C14.9919 2.375 14.7792 2.22933 14.5372 2.138C14.2952 2.04667 14.0416 2.00067 13.7762 2C13.5262 2 13.2762 2.046 13.0262 2.138C12.7762 2.23 12.5512 2.37567 12.3512 2.575L12.0762 2.85L13.9262 4.725C14.1762 4.95833 14.3596 5.225 14.4762 5.525C14.5929 5.825 14.6512 6.14167 14.6512 6.475C14.6512 7.175 14.4139 7.76267 13.9392 8.238C13.4646 8.71333 12.8769 8.95067 12.1762 8.95C11.8429 8.95 11.5222 8.89167 11.2142 8.775C10.9062 8.65833 10.6352 8.48333 10.4012 8.25L8.52523 6.4L4.15023 10.775C4.10023 10.825 4.0629 10.8793 4.03823 10.938C4.01357 10.9967 4.0009 11.059 4.00023 11.125C4.00023 11.2583 4.05023 11.3793 4.15023 11.488C4.25023 11.5967 4.3669 11.6507 4.50023 11.65C4.5669 11.65 4.63357 11.6333 4.70023 11.6C4.7669 11.5667 4.8169 11.5333 4.85023 11.5L8.25023 8.1L9.65023 9.5L6.27523 12.9C6.22523 12.95 6.1879 13.0043 6.16323 13.063C6.13857 13.1217 6.1259 13.184 6.12523 13.25C6.12523 13.3833 6.17523 13.5 6.27523 13.6C6.37523 13.7 6.4919 13.75 6.62523 13.75C6.6919 13.75 6.75857 13.7333 6.82523 13.7C6.8919 13.6667 6.9419 13.6333 6.97523 13.6L10.3752 10.225L11.7752 11.625L8.40023 15.025C8.35023 15.0583 8.3129 15.1083 8.28823 15.175C8.26357 15.2417 8.2509 15.3083 8.25023 15.375C8.25023 15.5083 8.30023 15.625 8.40023 15.725C8.50023 15.825 8.6169 15.875 8.75023 15.875C8.8169 15.875 8.87957 15.8623 8.93823 15.837C8.9969 15.8117 9.0509 15.7743 9.10023 15.725L12.5002 12.35L13.9002 13.75L10.5002 17.15C10.4502 17.2 10.4129 17.254 10.3882 17.312C10.3636 17.37 10.3509 17.4327 10.3502 17.5C10.3502 17.6333 10.4046 17.75 10.5132 17.85C10.6219 17.95 10.7426 18 10.8752 18ZM10.8502 20C10.2336 20 9.6879 19.796 9.21323 19.388C8.73857 18.98 8.45923 18.4673 8.37523 17.85C7.80857 17.7667 7.33357 17.5333 6.95023 17.15C6.5669 16.7667 6.33357 16.2917 6.25023 15.725C5.68357 15.6417 5.2129 15.4043 4.83823 15.013C4.46357 14.6217 4.23423 14.1507 4.15023 13.6C3.5169 13.5167 3.00023 13.2417 2.60023 12.775C2.20023 12.3083 2.00023 11.7583 2.00023 11.125C2.00023 10.7917 2.0629 10.471 2.18823 10.163C2.31357 9.855 2.49257 9.584 2.72523 9.35L8.52523 3.575L11.8002 6.85C11.8336 6.9 11.8836 6.93767 11.9502 6.963C12.0169 6.98833 12.0836 7.00067 12.1502 7C12.3002 7 12.4252 6.95433 12.5252 6.863C12.6252 6.77167 12.6752 6.65067 12.6752 6.5C12.6752 6.43333 12.6626 6.36667 12.6372 6.3C12.6119 6.23333 12.5746 6.18333 12.5252 6.15L8.95023 2.575C8.7669 2.375 8.55457 2.22933 8.31323 2.138C8.0719 2.04667 7.81757 2.00067 7.55023 2C7.30023 2 7.05023 2.046 6.80023 2.138C6.55023 2.23 6.32523 2.37567 6.12523 2.575L2.60023 6.125C2.45023 6.275 2.32523 6.45 2.22523 6.65C2.12523 6.85 2.05857 7.05 2.02523 7.25C1.9919 7.45 1.9919 7.65433 2.02523 7.863C2.05857 8.07167 2.12523 8.26733 2.22523 8.45L0.775234 9.9C0.491901 9.51667 0.283568 9.096 0.150234 8.638C0.016901 8.18 -0.033099 7.71733 0.000234379 7.25C0.0335677 6.78267 0.150234 6.32867 0.350234 5.888C0.550234 5.44733 0.825234 5.05133 1.17523 4.7L4.70023 1.175C5.10023 0.791667 5.54623 0.5 6.03823 0.3C6.53023 0.0999999 7.03424 0 7.55023 0C8.06623 0 8.57057 0.0999999 9.06323 0.3C9.5559 0.5 9.99323 0.791667 10.3752 1.175L10.6502 1.45L10.9252 1.175C11.3252 0.791667 11.7712 0.5 12.2632 0.3C12.7552 0.0999999 13.2592 0 13.7752 0C14.2912 0 14.7956 0.0999999 15.2882 0.3C15.7809 0.5 16.2182 0.791667 16.6002 1.175L20.8252 5.4C21.2086 5.78333 21.5002 6.225 21.7002 6.725C21.9002 7.225 22.0002 7.73333 22.0002 8.25C22.0002 8.76667 21.9002 9.271 21.7002 9.763C21.5002 10.255 21.2086 10.6923 20.8252 11.075L12.6252 19.25C12.3919 19.4833 12.1212 19.6667 11.8132 19.8C11.5052 19.9333 11.1842 20 10.8502 20Z" fill="#FFFFFF"/>
</svg>
